<svg height="512pt" viewBox="-82 0 512 512.00101" width="512pt" xmlns="http://www.w3.org/2000/svg"><path d="m263.703125 512c-24.601563 0-44.617187-20.015625-44.617187-44.613281 0-31.230469-12.160157-60.585938-34.242188-82.667969-3.546875-3.546875-7.316406-6.867188-11.273438-9.929688-3.957031 3.0625-7.726562 6.382813-11.273437 9.929688-22.082031 22.082031-34.242187 51.4375-34.242187 82.664062 0 24.601563-20.015626 44.613282-44.613282 44.617188-24.601562 0-44.617187-20.015625-44.617187-44.617188 0-50.496093 18.414062-99.042968 51.851562-136.691406 2.871094-3.234375 6.988281-5.082031 11.3125-5.082031h143.164063c4.324218 0 8.441406 1.847656 11.3125 5.082031 33.4375 37.648438 51.851562 86.195313 51.851562 136.691406 0 24.601563-20.015625 44.617188-44.613281 44.617188zm0 0" fill="#ffcdbe"/><path d="m173.570312 175.742188c-48.453124 0-87.871093-39.421876-87.871093-87.871094 0-48.453125 39.417969-87.871094 87.871093-87.871094 48.449219 0 87.867188 39.417969 87.867188 87.871094 0 48.449218-39.417969 87.871094-87.867188 87.871094zm0 0" fill="#ffcdbe"/><path d="m261.4375 87.871094c0-48.453125-39.417969-87.871094-87.867188-87.871094v175.742188c48.449219 0 87.867188-39.421876 87.867188-87.871094zm0 0" fill="#ffb89c"/><path d="m333.796875 145.421875c-8.601563-8.609375-20.042969-13.351563-32.214844-13.351563-12.167969 0-23.609375 4.738282-32.21875 13.347657-31.125 31.125-61.5625 45.621093-95.792969 45.621093-34.230468 0-64.667968-14.496093-95.792968-45.621093-8.609375-8.609375-20.050782-13.347657-32.21875-13.347657-12.167969 0-23.609375 4.742188-32.207032 13.34375-8.609374 8.601563-13.351562 20.042969-13.351562 32.214844 0 12.167969 4.742188 23.609375 13.347656 32.21875 17.71875 17.714844 46.089844 39.921875 70.171875 52.152344v50.335938c0 8.355468 6.773438 15.128906 15.128907 15.128906h149.847656c8.355468 0 15.128906-6.773438 15.128906-15.128906v-50.335938c24.078125-12.230469 52.445312-34.433594 70.164062-52.148438 8.609376-8.605468 13.351563-20.046874 13.351563-32.21875 0-12.171874-4.742187-23.617187-13.34375-32.210937zm0 0" fill="#ffcdbe"/><path d="m248.496094 327.464844c8.351562 0 15.125-6.773438 15.125-15.128906v-50.335938c24.082031-12.230469 52.449218-34.433594 70.167968-52.148438 8.609376-8.605468 13.351563-20.046874 13.351563-32.21875 0-12.171874-4.742187-23.617187-13.34375-32.210937-8.601563-8.609375-20.042969-13.351563-32.214844-13.351563-12.167969 0-23.609375 4.738282-32.21875 13.347657-31.125 31.125-61.5625 45.621093-95.792969 45.621093v136.425782zm0 0" fill="#ffb89c"/><path d="m245.152344 325.609375h-71.582032v49.179687c3.957032 3.0625 7.726563 6.382813 11.273438 9.929688 22.082031 22.082031 34.242188 51.4375 34.242188 82.667969 0 24.597656 20.015624 44.613281 44.613281 44.613281 24.601562 0 44.617187-20.011719 44.617187-44.613281 0-50.5-18.414062-99.046875-51.851562-136.695313-2.871094-3.230468-6.988282-5.082031-11.3125-5.082031zm0 0" fill="#ffb89c"/><path d="m263.621094 307.292969h-180.101563v24.976562c0 49.785157 40.730469 91.484375 90.515625 91.238281 23.890625-.121093 46.324219-9.480468 63.207032-26.371093 17.011718-17 26.378906-39.617188 26.378906-63.683594zm0 0" fill="#a5f6ff"/><path d="m173.570312 423.503906c.15625 0 .308594.003906.464844.003906 23.890625-.121093 46.324219-9.480468 63.207032-26.371093 17.011718-17 26.378906-39.617188 26.378906-63.683594v-26.160156h-90.050782zm0 0" fill="#38ebff"/></svg>